<?xml version="1.0" encoding="UTF-8"?>
<svg xmlns="http://www.w3.org/2000/svg" xmlns:xlink="http://www.w3.org/1999/xlink" width="30px" height="30px" viewBox="0 0 30 30" version="1.1">
<g id="surface1">
<path style=" stroke:none;fill-rule:nonzero;fill:rgb(95.294118%,29.019609%,21.960784%);fill-opacity:1;" d="M 10.527344 16.980469 L 15.210938 16.980469 C 14.390625 19.304688 12.160156 20.972656 9.554688 20.953125 C 6.386719 20.929688 3.769531 18.398438 3.648438 15.234375 C 3.515625 11.84375 6.234375 9.046875 9.597656 9.046875 C 11.136719 9.046875 12.539062 9.632812 13.59375 10.589844 C 13.84375 10.816406 14.226562 10.820312 14.472656 10.585938 L 16.195312 8.96875 C 16.464844 8.714844 16.464844 8.285156 16.195312 8.03125 C 14.519531 6.441406 12.269531 5.453125 9.789062 5.402344 C 4.496094 5.300781 0.0390625 9.640625 0 14.929688 C -0.0351562 20.265625 4.273438 24.597656 9.597656 24.597656 C 14.71875 24.597656 18.898438 20.589844 19.179688 15.539062 C 19.1875 15.476562 19.191406 13.335938 19.191406 13.335938 L 10.527344 13.335938 C 10.171875 13.335938 9.882812 13.625 9.882812 13.980469 L 9.882812 16.335938 C 9.882812 16.691406 10.171875 16.980469 10.527344 16.980469 Z M 10.527344 16.980469 "/>
<path style=" stroke:none;fill-rule:nonzero;fill:rgb(95.294118%,29.019609%,21.960784%);fill-opacity:1;" d="M 27.132812 13.550781 L 27.132812 11.25 C 27.132812 10.9375 26.882812 10.683594 26.570312 10.683594 L 24.632812 10.683594 C 24.320312 10.683594 24.070312 10.9375 24.070312 11.25 L 24.070312 13.550781 L 21.765625 13.550781 C 21.453125 13.550781 21.203125 13.804688 21.203125 14.113281 L 21.203125 16.050781 C 21.203125 16.363281 21.453125 16.617188 21.765625 16.617188 L 24.070312 16.617188 L 24.070312 18.917969 C 24.070312 19.230469 24.320312 19.484375 24.632812 19.484375 L 26.570312 19.484375 C 26.882812 19.484375 27.132812 19.230469 27.132812 18.917969 L 27.132812 16.617188 L 29.4375 16.617188 C 29.746094 16.617188 30 16.363281 30 16.050781 L 30 14.113281 C 30 13.804688 29.746094 13.550781 29.4375 13.550781 Z M 27.132812 13.550781 "/>
</g>
</svg>
